<svg xmlns="http://www.w3.org/2000/svg" version="1.1" xmlns:xlink="http://www.w3.org/1999/xlink" width="1000" height="1000"><style>
    #light-icon {
      display: inline;
    }
    #dark-icon {
      display: none;
    }

    @media (prefers-color-scheme: dark) {
      #light-icon {
        display: none;
      }
      #dark-icon {
        display: inline;
      }
    }
  </style><g id="light-icon"><svg xmlns="http://www.w3.org/2000/svg" version="1.1" xmlns:xlink="http://www.w3.org/1999/xlink" width="1000" height="1000"><g><g transform="matrix(3.90625,0,0,3.90625,0,0)"><svg xmlns="http://www.w3.org/2000/svg" version="1.1" xmlns:xlink="http://www.w3.org/1999/xlink" width="256" height="256"><svg width="256" height="256" viewBox="0 0 256 256" fill="none" xmlns="http://www.w3.org/2000/svg">
<path d="M208 128L128 208" stroke="black" stroke-width="32" stroke-linecap="round" stroke-linejoin="round"></path>
<path d="M192 40L40 192" stroke="black" stroke-width="32" stroke-linecap="round" stroke-linejoin="round"></path>
<path d="M90 65C90 78.8071 78.8071 90 65 90C51.1928 90 40 78.8071 40 65C40 51.1929 51.1928 40 65 40C78.8071 40 90 51.1929 90 65Z" fill="black"></path>
</svg></svg></g></g></svg></g><g id="dark-icon"><svg xmlns="http://www.w3.org/2000/svg" version="1.1" xmlns:xlink="http://www.w3.org/1999/xlink" width="1000" height="1000"><g clip-path="url(#SvgjsClipPath1059)"><rect width="1000" height="1000" fill="#ffffff"></rect><g transform="matrix(3.125,0,0,3.125,100,100)"><svg xmlns="http://www.w3.org/2000/svg" version="1.1" xmlns:xlink="http://www.w3.org/1999/xlink" width="256" height="256"><svg width="256" height="256" viewBox="0 0 256 256" fill="none" xmlns="http://www.w3.org/2000/svg">
<path d="M208 128L128 208" stroke="black" stroke-width="32" stroke-linecap="round" stroke-linejoin="round"></path>
<path d="M192 40L40 192" stroke="black" stroke-width="32" stroke-linecap="round" stroke-linejoin="round"></path>
<path d="M90 65C90 78.8071 78.8071 90 65 90C51.1928 90 40 78.8071 40 65C40 51.1929 51.1928 40 65 40C78.8071 40 90 51.1929 90 65Z" fill="black"></path>
</svg></svg></g></g><defs><clipPath id="SvgjsClipPath1059"><rect width="1000" height="1000" x="0" y="0" rx="150" ry="150"></rect></clipPath></defs></svg></g></svg>