<svg xmlns="http://www.w3.org/2000/svg" version="1.1" xmlns:xlink="http://www.w3.org/1999/xlink" width="1000" height="1000"><style>
    #light-icon {
      display: inline;
    }
    #dark-icon {
      display: none;
    }

    @media (prefers-color-scheme: dark) {
      #light-icon {
        display: none;
      }
      #dark-icon {
        display: inline;
      }
    }
  </style><g id="light-icon"><svg xmlns="http://www.w3.org/2000/svg" version="1.1" xmlns:xlink="http://www.w3.org/1999/xlink" width="1000" height="1000"><g><g transform="matrix(3.90625,0,0,3.90625,0,0)"><svg xmlns="http://www.w3.org/2000/svg" version="1.1" xmlns:xlink="http://www.w3.org/1999/xlink" width="256" height="256"><svg width="256" height="256" viewBox="0 0 256 256" fill="none" xmlns="http://www.w3.org/2000/svg">
<path d="M208 128L128 208" stroke="black" stroke-width="32" stroke-linecap="round" stroke-linejoin="round"></path>
<path d="M192 40L40 192" stroke="black" stroke-width="32" stroke-linecap="round" stroke-linejoin="round"></path>
<rect x="27" y="28" width="70" height="70" rx="7" fill="black"></rect>
</svg></svg></g></g></svg></g><g id="dark-icon"><svg xmlns="http://www.w3.org/2000/svg" version="1.1" xmlns:xlink="http://www.w3.org/1999/xlink" width="1000" height="1000"><g clip-path="url(#SvgjsClipPath1019)"><rect width="1000" height="1000" fill="#ffffff"></rect><g transform="matrix(2.734375,0,0,2.734375,150,150)"><svg xmlns="http://www.w3.org/2000/svg" version="1.1" xmlns:xlink="http://www.w3.org/1999/xlink" width="256" height="256"><svg width="256" height="256" viewBox="0 0 256 256" fill="none" xmlns="http://www.w3.org/2000/svg">
<path d="M208 128L128 208" stroke="black" stroke-width="32" stroke-linecap="round" stroke-linejoin="round"></path>
<path d="M192 40L40 192" stroke="black" stroke-width="32" stroke-linecap="round" stroke-linejoin="round"></path>
<rect x="27" y="28" width="70" height="70" rx="7" fill="black"></rect>
</svg></svg></g></g><defs><clipPath id="SvgjsClipPath1019"><rect width="1000" height="1000" x="0" y="0" rx="250" ry="250"></rect></clipPath></defs></svg></g></svg>